<svg xmlns="http://www.w3.org/2000/svg" xmlns:svgjs="http://svgjs.com/svgjs" xmlns:xlink="http://www.w3.org/1999/xlink" width="288" height="288"><svg xmlns="http://www.w3.org/2000/svg" width="288" height="288" enable-background="new 0 0 17.261 17.261" viewBox="0 0 17.261 17.261"><path fill="#fff" d="M15.864,3.678c-0.466-0.045-0.933,0.036-1.397,0.063c-0.466,0.025-0.933,0.445-1.397,0.481
			c-0.467,0.042-0.933,0.075-1.397,0.125v0.03h-0.018v-0.03c-0.466-0.05-0.933-0.083-1.397-0.125
			C9.791,4.186,9.325,4.155,8.86,4.129C8.394,4.102,7.928,4.022,7.463,4.067c-0.466,0.042-0.932,0.108-1.397,0.28v0.062
			C6.531,4.58,6.997,5.034,7.463,5.076C7.929,5.121,8.395,5.041,8.86,5.014c0.466-0.026,0.932-0.446,1.398-0.482
			c0.401-0.035,0.802-0.066,1.202-0.106v1.261C9.538,5.814,8.318,7.11,7.996,8.781c0,0-5.788,0.052-6.151,0s0,0.673,0,0.673
			l6.151,0.569c0.222,1.152,0.438,2.291,1.962,2.357l3.577-0.001c2.349,0,3.43-0.145,3.43-2.2c0-2.027-2.762-4.435-5.09-4.502v-1.25
			c0.398,0.039,0.796,0.07,1.195,0.105c0.465,0.036,0.932,0.067,1.397,0.094c0.465,0.026,0.932,0.107,1.397,0.062
			c0.466-0.042,0.932-0.108,1.397-0.28V4.346C16.796,4.175,16.33,3.72,15.864,3.678z M12.964,6.658
			c1.804,0.385,2.995,2.821,2.995,2.821c0,0.464-0.287,0.465-0.578,0.465H12.06c-0.291,0-0.525-0.209-0.525-0.465V7.124
			c0-0.257,0.234-0.466,0.525-0.466H12.964z" class="color030104 svgShape"/><path fill="#fff" d="M1.892 10.289c-.675 0-1.224-.549-1.224-1.225 0-.675.549-1.225 1.224-1.225.449 0 .837.245 1.051.605C3.154 8.447 3.398 8.448 3.68 8.448 3.424 7.706 2.72 7.172 1.892 7.172.849 7.172 0 8.02 0 9.064c0 1.043.849 1.893 1.892 1.893.722 0 1.35-.406 1.669-1.003L2.824 9.849C2.6 10.116 2.267 10.289 1.892 10.289zM16.735 12.07c-.171 0-.311.139-.311.31 0 .113-.038.202-.118.28-.294.283-1.031.322-1.28.313H9.538c-.172 0-.311.139-.311.311s.139.311.311.311h5.476c.018.001.053.001.103.001.307 0 1.157-.042 1.62-.485.203-.194.31-.446.31-.729C17.046 12.209 16.907 12.07 16.735 12.07z" class="color030104 svgShape"/></svg></svg>